<svg width="327" height="127" viewBox="0 0 327 127" fill="none" xmlns="http://www.w3.org/2000/svg">
<path fill-rule="evenodd" clip-rule="evenodd" d="M176.292 64.9416V75.511L178.46 76.6321V158.679L23.1805 160.449V107.957H28.2771V57.4848H30.1284V50.5443H32.3411V57.4848H42.6228C42.6228 57.4848 42.4679 90.1516 42.6228 90.3287C42.7777 90.5057 47.9406 90.3287 47.9406 90.3287V116.807H52.1448V22.5168H57.5069V17.3169H59.7196V22.5168H76.514V27.1635H82.9013V17.3169H85.114V27.1635H88.2486V44.4373H95.7718V75.4151H104.623V103.531H109.262V45.0937H115.103V36.147H117.316V45.0937H133.388V12.7957H138.079V10.1404H156.791V0.426666H159.003V10.1404H160.228V12.7735H164.808V69.4408L174.079 74.3087V64.9416H176.292ZM11.5122 77.1919H13.8355L18.5117 160.22H-5.81323L-1.12968 77.1919H0.699481V74.1753H11.5122V77.1919Z" fill="#1E1FCD"/>
<path fill-rule="evenodd" clip-rule="evenodd" d="M324.532 91.1016V101.671L326.7 102.792V184.839L171.421 186.609V134.117H176.517V83.6448H178.368V76.7043H180.581V83.6448H190.863C190.863 83.6448 190.708 116.312 190.863 116.489C191.018 116.666 196.181 116.489 196.181 116.489V142.967H200.385V48.6768H205.747V43.4769H207.96V48.6768H224.754V53.3235H231.141V43.4769H233.354V53.3235H236.489V70.5973H244.012V101.575H252.863V129.691H257.502V71.2537H263.343V62.307H265.556V71.2537H281.628V38.9557H286.319V36.3004H305.031V26.5867H307.243V36.3004H308.468V38.9335H313.048V95.6008L322.319 100.469V91.1016H324.532ZM159.752 103.352H162.076L166.752 186.38H142.427L147.11 103.352H148.939V100.335H159.752V103.352Z" fill="#1E1FCD"/>
</svg>
