<svg width="450" height="174" viewBox="0 0 450 174" fill="none" xmlns="http://www.w3.org/2000/svg">
<path fill-rule="evenodd" clip-rule="evenodd" d="M242.604 88.7821V103.327L245.588 104.87V217.778L31.8997 220.214V147.977H38.9133V78.5204H41.461V68.9693H44.506V78.5204H58.6551C58.6551 78.5204 58.4419 123.475 58.6551 123.718C58.8682 123.962 65.9732 123.718 65.9732 123.718V160.157H71.7587V30.3993H79.1377V23.2435H82.1828V30.3993H105.294V36.7938H114.084V23.2435H117.129V36.7938H121.443V60.565H131.796V103.195H143.976V141.887H150.36V61.4684H158.399V49.1564H161.444V61.4684H183.561V17.0215H190.016V13.3675H215.767V0H218.812V13.3675H220.497V16.9911H226.8V94.9735L239.559 101.673V88.7821H242.604ZM15.8424 105.64H19.0396L25.4747 219.899H-8L-1.55475 105.64H0.96245V101.489H15.8424V105.64Z" fill="#1E1FCD"/>
<path fill-rule="evenodd" clip-rule="evenodd" d="M446.604 124.782V139.327L449.588 140.87V253.778L235.9 256.214V183.977H242.913V114.52H245.461V104.969H248.506V114.52H262.655C262.655 114.52 262.442 159.475 262.655 159.718C262.868 159.962 269.973 159.718 269.973 159.718V196.157H275.759V66.3993H283.138V59.2435H286.183V66.3993H309.294V72.7938H318.084V59.2435H321.129V72.7938H325.443V96.565H335.796V139.195H347.976V177.887H354.36V97.4684H362.399V85.1564H365.444V97.4684H387.561V53.0215H394.016V49.3675H419.767V36H422.812V49.3675H424.497V52.9911H430.8V130.974L443.559 137.673V124.782H446.604ZM219.842 141.64H223.04L229.475 255.899H196L202.445 141.64H204.962V137.489H219.842V141.64Z" fill="#1E1FCD"/>
</svg>
