<svg width="265" height="147" viewBox="0 0 265 147" fill="none" xmlns="http://www.w3.org/2000/svg">
<path d="M138.313 7.26973C138.207 5.73144 131.319 10.2065 131.319 10.2065C131.319 10.2065 137.153 5.73144 136.653 4.61267C136.153 3.49391 129.579 8.3885 129.579 8.3885C129.579 8.3885 135.58 3.7736 134.653 2.78803C133.726 1.80245 127.319 6.99004 127.319 6.99004C127.319 6.99004 133.853 1.24973 131.359 1.10988C130.239 1.04995 121.445 7.02334 111.917 14.1954C114.584 17.5251 117.251 20.7415 120.132 23.8514C123.185 20.6949 125.592 18.1843 125.919 17.7648C126.899 16.5062 136.633 17.3453 136.673 15.807C136.713 14.2687 130.259 13.5694 130.259 13.5694C130.259 13.5694 138.42 8.80803 138.313 7.26973Z" fill="white"/>
<path fill-rule="evenodd" clip-rule="evenodd" d="M119.871 24.0578C119.928 24.1187 120.008 24.1526 120.091 24.1511C120.166 24.1459 120.237 24.1154 120.291 24.0645C123.898 20.3353 125.725 18.4307 126.099 17.9513C126.471 17.4728 129.048 17.3325 131.126 17.2194L131.139 17.2187C134.706 17.0323 136.913 16.8591 136.913 15.8136C136.946 14.3752 133.206 13.6627 131.126 13.3763C133.399 12.0178 138.7 8.68818 138.6 7.24977C138.591 7.0274 138.46 6.82798 138.26 6.73034C137.653 6.42402 136.066 7.10326 134.499 7.94234C135.96 6.60382 137.213 5.17873 136.886 4.4795C136.811 4.31728 136.662 4.20094 136.486 4.16651C135.946 4.02667 134.773 4.58605 133.519 5.32523C134.346 4.45286 134.966 3.66707 135.013 3.121C135.038 2.92439 134.975 2.72666 134.839 2.5816C134.266 1.96894 132.439 2.90791 130.612 4.12656C131.592 3.01445 132.339 1.90901 132.126 1.30967C131.997 0.980634 131.665 0.776889 131.312 0.810227C129.739 0.810227 118.738 8.62158 111.691 13.949C111.627 14.0007 111.584 14.0742 111.571 14.1555C111.562 14.2368 111.586 14.3183 111.637 14.3819C114.698 18.2176 117.311 21.2876 119.871 24.0578ZM120.098 23.4052C117.645 20.7681 115.184 17.8447 112.311 14.2487C122.898 6.29749 130.372 1.41622 131.286 1.46284C131.406 1.4695 131.559 1.49613 131.559 1.55607C131.772 2.14875 129.392 4.75919 127.065 6.81025C127.009 6.8654 126.977 6.94104 126.977 7.02002C126.977 7.09901 127.009 7.17464 127.065 7.22979C127.173 7.35547 127.36 7.37588 127.492 7.27641C130.746 4.65264 134.059 2.63487 134.433 3.04775V3.121C134.353 4.03333 131.292 6.71702 129.379 8.19539C129.245 8.29837 129.219 8.49067 129.322 8.62491C129.425 8.75915 129.618 8.7845 129.752 8.68152C132.873 6.3441 135.913 4.56607 136.36 4.78583C136.586 5.2653 134.146 7.70926 131.139 10.0134C131.024 10.1166 131.004 10.2889 131.092 10.4156C131.18 10.5423 131.349 10.584 131.486 10.5128C134.613 8.48174 137.6 7.02335 138.013 7.3097C138.066 8.13545 134.019 11.0123 130.066 13.3031C129.954 13.371 129.898 13.5019 129.926 13.6294C129.951 13.7573 130.056 13.8542 130.186 13.8691C133.153 14.1954 136.326 15.0212 136.326 15.8003C136.313 16.3272 133.013 16.5089 131.186 16.6094L131.126 16.6127C128.052 16.7792 126.145 16.9124 125.639 17.5783C125.432 17.8247 124.325 19.0367 120.098 23.4052Z" fill="#231F20"/>
<path d="M86.2217 37.0501C84.2615 43.2366 96.1026 71.8117 96.1026 71.8117L110.771 53.705C110.444 53.1456 103.03 40.2666 103.03 40.2666C103.03 40.2666 113.971 30.1511 120.071 23.8514C117.204 20.7415 114.498 17.4984 111.857 14.1954C100.15 23.0123 87.3018 33.6406 86.2217 37.0501Z" fill="#231F20"/>
<path fill-rule="evenodd" clip-rule="evenodd" d="M96.0293 72.1047H96.1027C96.2018 72.1156 96.2998 72.0755 96.3627 71.9981L111.031 53.8981C111.096 53.7968 111.096 53.6665 111.031 53.5652C110.731 53.0457 104.343 41.9713 103.397 40.3265C104.817 39.0146 114.664 29.8647 120.285 24.0578C120.387 23.9441 120.387 23.772 120.285 23.6583C117.731 20.9013 115.124 17.838 112.077 14.0156C111.977 13.8925 111.797 13.8719 111.671 13.969C99.9163 22.7859 87.0285 33.4608 85.9151 36.9702C83.9416 43.19 95.3159 70.7595 95.8026 71.9249C95.8401 72.0213 95.9268 72.09 96.0293 72.1047ZM86.4885 37.1367C87.5686 33.7804 100.756 22.9391 111.824 14.6016C114.731 18.2376 117.238 21.181 119.691 23.8447C113.84 29.8368 103.71 39.2479 102.901 39.9996C102.871 40.0273 102.854 40.0432 102.85 40.0468C102.75 40.1415 102.725 40.2914 102.79 40.4131L110.424 53.6784L96.1693 71.2389C94.6692 67.5497 84.715 42.7305 86.4885 37.1367Z" fill="#231F20"/>
<path d="M121.092 66.5908C122.292 74.8883 127.819 81.9072 133.819 88.3201C137.413 92.1292 141.82 96.0049 147.081 95.7585C149.594 95.632 151.954 94.5532 154.148 93.3279C159.641 90.2819 164.554 86.2943 168.663 81.5476C166.995 81.5536 165.593 80.2999 165.416 78.6441C167.602 79.6657 170.177 79.3776 172.083 77.8983C176.163 74.6618 174.183 71.805 171.063 69.3943C166.184 65.6376 162.303 60.7417 159.762 55.1368C155.868 46.4397 148.134 34.8193 136.68 37.4697C125.665 40.0135 122.678 49.8826 121.158 59.6718C120.79 61.9618 120.768 64.2941 121.092 66.5908Z" fill="white"/>
<path fill-rule="evenodd" clip-rule="evenodd" d="M133.6 88.5265C137.126 92.2757 141.42 96.0715 146.587 96.0715H147.094C149.761 95.9449 152.235 94.7529 154.295 93.6075C159.828 90.5424 164.77 86.5172 168.889 81.7207C168.97 81.6318 168.989 81.5024 168.936 81.3944C168.885 81.2838 168.771 81.2153 168.649 81.2212C167.349 81.211 166.204 80.3633 165.816 79.1236C167.991 79.9153 170.421 79.5355 172.25 78.118C173.863 76.8261 174.67 75.4543 174.67 74.1224C174.657 72.5109 173.563 70.926 171.23 69.1213C166.387 65.3981 162.537 60.54 160.022 54.9769C151.801 36.6439 141.814 35.9314 136.586 37.1367C131.686 38.1629 127.481 41.28 125.079 45.6672C122.565 50.0224 121.505 55.3965 120.838 59.5918C120.47 61.9248 120.454 64.2998 120.792 66.6374C122.038 75.2545 127.966 82.5331 133.6 88.5265ZM136.726 37.7294C137.745 37.4953 138.788 37.3769 139.833 37.3764C145.167 37.3764 152.861 40.4996 159.455 55.2566C162.013 60.9076 165.924 65.843 170.843 69.6274C172.99 71.2856 174.043 72.7639 174.043 74.1491C174.056 75.3144 173.316 76.4931 171.856 77.6585C170.045 79.0571 167.604 79.3294 165.529 78.3644C165.437 78.308 165.321 78.308 165.229 78.3644C165.137 78.4235 165.086 78.5287 165.096 78.6374C165.265 80.214 166.454 81.4907 168.016 81.774C164.031 86.31 159.295 90.1281 154.015 93.0615C152.014 94.1736 149.621 95.3323 147.081 95.4522C141.92 95.7185 137.607 91.8961 134.06 88.1269C128.472 82.2135 122.612 75.0214 121.392 66.5641C121.064 64.2883 121.08 61.9762 121.438 59.705C122.985 49.7561 125.905 40.2333 136.726 37.7294Z" fill="#231F20"/>
<path d="M197.252 92.6353C196.785 94.4799 189.125 108.145 189.125 108.145L199.125 113.545C199.125 113.545 208.173 98.4023 208.946 97.3967C209.72 96.3911 216.28 87.6608 217.174 84.5975C218.067 81.5342 211.76 79.2701 209.173 79.5165C206.586 79.7629 197.719 90.7907 197.252 92.6353Z" fill="white"/>
<path fill-rule="evenodd" clip-rule="evenodd" d="M198.972 113.812C199.014 113.838 199.062 113.852 199.112 113.852C199.2 113.848 199.281 113.803 199.332 113.732C199.352 113.703 199.794 112.967 200.48 111.823C202.94 107.723 208.545 98.3819 209.14 97.6164C209.143 97.612 209.162 97.5865 209.196 97.5416C209.88 96.6381 216.505 87.8826 217.414 84.7107C217.644 83.8428 217.412 82.9178 216.8 82.2601C215.153 80.269 211.053 79.0769 209.086 79.2434C206.379 79.4499 197.412 90.6042 196.918 92.562C196.552 94.0071 191.491 103.283 188.824 107.992C188.791 108.066 188.791 108.151 188.824 108.225C188.845 108.305 188.898 108.372 188.971 108.411L198.972 113.812ZM199.005 113.139L189.544 108.018C190.651 106.04 197.105 94.4466 197.545 92.7085C197.952 91.1369 206.739 80.0292 209.18 79.8161C210.966 79.663 214.867 80.795 216.367 82.613C216.855 83.1147 217.044 83.8345 216.867 84.5109C216.067 87.3012 210.22 95.2124 208.693 97.2102C207.966 98.1558 200.225 111.095 199.005 113.139Z" fill="#231F20"/>
<path d="M194.378 98.5421L185.444 109.423L166.176 96.5243L157.968 111.787C157.968 111.787 185.257 132.251 189.124 130.294C192.991 128.336 204.706 104.189 204.706 104.189L194.378 98.5421Z" fill="#231F20"/>
<path fill-rule="evenodd" clip-rule="evenodd" d="M157.788 112.02C160.455 114.018 182.877 130.706 188.504 130.706C188.758 130.721 189.012 130.676 189.244 130.573C193.165 128.595 204.506 105.328 204.986 104.336C205.052 104.195 205 104.028 204.866 103.949L194.505 98.3023C194.381 98.2328 194.226 98.264 194.138 98.3756L185.371 109.03L166.336 96.2779C166.267 96.2316 166.182 96.2171 166.102 96.238C166.022 96.2583 165.954 96.3115 165.916 96.3845L157.708 111.648C157.642 111.775 157.676 111.931 157.788 112.02ZM189.011 130.034C185.978 131.559 166.049 117.461 158.342 111.701L166.276 96.9438L185.284 109.67C185.408 109.758 185.58 109.731 185.671 109.61L194.452 98.915L204.346 104.316C203.099 106.886 192.538 128.243 189.011 130.034Z" fill="#231F20"/>
<path d="M202.559 71.9315L202.472 98.5421H215.08V71.9315H202.559Z" fill="#231F20"/>
<path fill-rule="evenodd" clip-rule="evenodd" d="M202.472 98.8617H215.08C215.159 98.8618 215.235 98.83 215.29 98.7736C215.345 98.7172 215.375 98.6409 215.373 98.5621V71.9249C215.373 71.7631 215.242 71.6319 215.08 71.6319H202.559C202.396 71.6318 202.262 71.762 202.259 71.9249L202.179 98.5621C202.177 98.6409 202.207 98.7172 202.262 98.7736C202.318 98.83 202.393 98.8618 202.472 98.8617ZM214.773 98.2757H202.772L202.839 72.2245H214.773V98.2757Z" fill="#231F20"/>
<path d="M203.839 74.2823L203.772 95.1925H213.787V74.2823H203.839Z" fill="white"/>
<path fill-rule="evenodd" clip-rule="evenodd" d="M203.786 95.4921H213.787C213.868 95.4958 213.948 95.4658 214.007 95.4092C214.067 95.3526 214.1 95.2743 214.1 95.1925V74.2823C214.1 74.1168 213.966 73.9826 213.8 73.9826H203.852C203.685 73.9826 203.549 74.1157 203.546 74.2823L203.486 95.1858C203.482 95.268 203.514 95.3477 203.572 95.4056C203.629 95.4623 203.706 95.4935 203.786 95.4921ZM213.48 94.8662H204.079L204.146 74.5886H213.48V94.8662Z" fill="#231F20"/>
<path d="M196.705 94.0204C196.705 94.0204 194.825 85.057 197.645 83.6519C200.465 82.2468 210.16 80.6019 208.659 82.7995C207.159 84.9971 201.905 86.3556 201.905 86.3556C201.905 86.3556 202.986 89.4921 201.799 91.7163" fill="white"/>
<path d="M196.705 94.3201C196.562 94.3225 196.438 94.2211 196.412 94.0804C196.332 93.7074 194.512 84.8705 197.512 83.3789C199.945 82.1735 207.799 80.6219 208.946 81.9271C209.198 82.2362 209.181 82.6837 208.906 82.9726C207.573 84.9704 203.459 86.2357 202.286 86.5687C202.532 87.441 203.092 89.9383 202.066 91.8961C201.984 92.0421 201.8 92.0955 201.652 92.016C201.506 91.9341 201.451 91.7524 201.526 91.6031C202.639 89.5254 201.626 86.522 201.612 86.4888C201.579 86.4123 201.579 86.3254 201.612 86.249C201.654 86.1742 201.723 86.119 201.806 86.0959C201.859 86.0959 206.966 84.764 208.386 82.6663C208.486 82.5198 208.513 82.4133 208.466 82.36C207.746 81.5342 200.465 82.6264 197.759 83.9582C195.618 85.0237 196.478 91.5565 196.985 93.9871C197.003 94.0658 196.988 94.1483 196.944 94.216C196.9 94.2836 196.831 94.3308 196.752 94.3467L196.705 94.3201Z" fill="#231F20"/>
<path d="M126.999 76.613L110.391 48.1378L91.7224 68.8416L98.6564 83.7718C98.6564 83.7718 87.9888 108.991 87.9888 158.422C87.9888 158.422 144.781 158.176 159.075 158.176L140.407 129.175C140.407 129.175 145.074 115.736 147.481 112.38L161.382 119.938L177.637 97.8229L126.999 76.613Z" fill="#75ECCA"/>
<path d="M126.759 103.756C135.926 109.084 138.093 87.4277 138.5 82.7396C138.686 81.45 138.609 80.1362 138.273 78.8772C137.746 77.279 136.513 76.0403 135.279 74.8816C133.806 73.5498 132.106 72.1513 130.099 72.0647C128.2 72.0944 126.426 73.0207 125.319 74.562C124.236 76.0915 123.458 77.814 123.025 79.6363C120.865 87.168 120.945 95.1192 125.112 101.965C125.461 102.618 125.956 103.181 126.559 103.61L126.759 103.756Z" fill="#231F20"/>
<path fill-rule="evenodd" clip-rule="evenodd" d="M126.612 104.009C127.479 104.553 128.476 104.857 129.499 104.888C130.17 104.889 130.831 104.726 131.426 104.416C136.36 101.865 138.14 89.7651 138.76 82.7795C138.946 81.4449 138.864 80.0868 138.52 78.7839C137.967 77.1125 136.7 75.8405 135.446 74.6885C133.906 73.2368 132.166 71.8783 130.113 71.7917C128.115 71.8092 126.247 72.7794 125.085 74.4021C123.982 75.9617 123.187 77.7182 122.745 79.5764C120.312 88.0604 121.045 95.8584 124.865 102.138C125.235 102.832 125.762 103.43 126.406 103.883L126.612 104.009ZM125.545 74.7617C126.561 73.3431 128.169 72.4652 129.913 72.3777H130.073C131.939 72.451 133.573 73.7429 135.066 75.1147C136.266 76.2201 137.473 77.4255 137.98 78.9638C138.299 80.1871 138.371 81.4614 138.193 82.7129C137.166 94.4 134.593 102.111 131.166 103.883C129.879 104.549 128.479 104.422 126.892 103.497L126.699 103.383C126.141 102.976 125.684 102.445 125.365 101.832C121.632 95.7185 120.918 88.0604 123.312 79.7362C123.732 77.9511 124.491 76.2627 125.545 74.7617Z" fill="#231F20"/>
<path d="M154.115 63.1479C154.961 66.2178 153.574 70.1269 151.494 72.3977C150.108 73.896 147.067 74.2956 146.454 71.8583C145.68 68.6159 146.25 65.199 148.034 62.3821C149.367 60.1912 151.921 58.9392 153.561 61.7561C153.805 62.1942 153.991 62.662 154.115 63.1479Z" fill="#231F20"/>
<path fill-rule="evenodd" clip-rule="evenodd" d="M147.974 73.8094C148.223 73.8686 148.478 73.8976 148.734 73.896C149.87 73.8903 150.954 73.4212 151.734 72.5975C153.735 70.3999 155.321 66.4043 154.401 63.0747C154.259 62.5647 154.053 62.0748 153.788 61.6163C152.948 60.1645 151.941 59.8382 151.241 59.8382C150.008 59.8316 148.687 60.7372 147.754 62.2356C145.947 65.1228 145.376 68.6132 146.167 71.9249C146.36 72.8462 147.061 73.5775 147.974 73.8094ZM148.254 62.5353C149.067 61.23 150.194 60.4243 151.208 60.4243L151.234 60.4176C152.028 60.4243 152.714 60.9237 153.281 61.896C153.522 62.3143 153.708 62.7619 153.835 63.2278C154.688 66.3177 153.154 70.1601 151.274 72.1979C150.469 73.0583 149.28 73.4498 148.121 73.2367C147.417 73.0629 146.878 72.4963 146.741 71.785C145.98 68.6239 146.526 65.2902 148.254 62.5353Z" fill="#231F20"/>
<path d="M139.813 76.8861C138.48 81.9937 137.146 93.6275 128.646 87.5409C127.775 86.8576 127.015 86.0446 126.392 85.1303C122.205 79.5564 123.398 76.0403 125.565 69.9204C126.499 67.2567 127.305 64.593 128.232 61.9293C129.159 59.2655 130.686 56.7617 131.953 54.2378C131.906 54.3244 136.12 54.9037 140.333 52.9925C144.547 51.0813 148.034 49.0968 148.034 49.0968C149.174 50.8016 150.408 52.0935 151.014 54.1179C151.574 56.0818 151.735 58.1376 151.488 60.1646C150.954 65.1391 148.961 70.5198 146.701 74.9615C144.44 79.4033 139.813 76.8861 139.813 76.8861Z" fill="white"/>
<path fill-rule="evenodd" clip-rule="evenodd" d="M128.466 87.8007C130.119 88.986 131.606 89.5853 132.939 89.5853C133.413 89.5815 133.883 89.4936 134.326 89.3256C137.499 88.1299 138.701 82.9183 139.58 79.1049L139.587 79.077C139.727 78.4577 139.867 77.865 140 77.3389C141.281 77.9223 142.723 78.0515 144.087 77.7052C145.372 77.2727 146.419 76.3241 146.974 75.088C149.601 69.9404 151.308 64.6463 151.794 60.1912C152.042 58.1216 151.876 56.0235 151.308 54.018C150.824 52.6081 150.093 51.2957 149.147 50.1423C148.861 49.7494 148.574 49.3499 148.287 48.9237C148.197 48.7915 148.022 48.7484 147.881 48.8238C147.847 48.8438 144.354 50.8149 140.207 52.7128C137.67 53.8566 134.87 54.2894 132.106 53.9648C132.034 53.9278 131.951 53.9211 131.875 53.9462C131.798 53.9712 131.735 54.0259 131.699 54.0979C131.346 54.8038 130.973 55.5097 130.599 56.2156L130.599 56.2156C129.59 58.0226 128.71 59.8985 127.966 61.8294C127.472 63.2079 127.012 64.613 126.565 65.9781C126.542 66.0511 126.518 66.1243 126.494 66.1976C126.103 67.3947 125.7 68.6291 125.279 69.8339L125.276 69.8426C123.131 75.9107 121.834 79.5792 126.145 85.3234C126.788 86.2627 127.57 87.0982 128.466 87.8007ZM131.476 55.8619C131.701 55.4416 131.926 55.0214 132.139 54.5774C134.993 54.8996 137.881 54.4488 140.5 53.2722C144.04 51.654 147.107 49.9825 147.981 49.503C148.214 49.8427 148.461 50.1823 148.701 50.5086C149.612 51.607 150.321 52.8584 150.794 54.2045C151.343 56.1293 151.502 58.1443 151.261 60.1313C150.788 64.5131 149.094 69.734 146.501 74.8217C146.022 75.9069 145.11 76.7424 143.987 77.1258C142.638 77.4453 141.219 77.2729 139.987 76.6397C139.904 76.5985 139.806 76.5963 139.721 76.6336C139.637 76.6708 139.573 76.7438 139.547 76.8328C139.418 77.3103 139.294 77.8512 139.161 78.4279C139.121 78.5992 139.081 78.7736 139.04 78.9504C139.015 79.0532 138.991 79.1569 138.966 79.2616C138.096 82.9112 136.953 87.7044 134.159 88.7596C132.706 89.3056 130.919 88.8129 128.826 87.3079C127.981 86.64 127.244 85.8473 126.639 84.9571C122.518 79.4699 123.699 76.1202 125.852 70.0336C126.217 68.9979 126.544 68.0011 126.891 66.9422C126.974 66.6871 127.059 66.4284 127.146 66.1646C127.222 65.9305 127.3 65.694 127.378 65.4561C127.752 64.3135 128.136 63.1382 128.539 62.0358C129.275 60.1305 130.144 58.2791 131.139 56.4953C131.25 56.2822 131.363 56.072 131.476 55.8619Z" fill="#231F20"/>
<path d="M138.413 81.8273C138.413 81.8273 134.286 80.8883 132.413 77.4588C130.539 74.0292 131.673 71.3988 131.673 71.3988C131.673 71.3988 135.273 75.5609 139.827 76.906L138.413 81.8273Z" fill="#231F20"/>
<path fill-rule="evenodd" clip-rule="evenodd" d="M138.346 82.1202H138.413C138.546 82.1223 138.664 82.0348 138.7 81.9071L140.08 76.9992C140.103 76.9242 140.094 76.8432 140.057 76.7743C140.019 76.7055 139.955 76.6546 139.88 76.633C135.486 75.3278 131.879 71.2523 131.879 71.2123C131.811 71.1398 131.711 71.105 131.613 71.1191C131.512 71.1337 131.426 71.1992 131.386 71.2922C131.339 71.4054 130.226 74.1091 132.146 77.6119C134.066 81.1147 138.173 82.0803 138.346 82.1202ZM132.659 77.3056C131.71 75.7019 131.398 73.8005 131.786 71.9781C132.779 73.0236 135.766 75.9138 139.453 77.0925L138.206 81.4543C137.28 81.1813 134.186 80.0892 132.659 77.3056Z" fill="#231F20"/>
<path d="M140.94 68.4953C140.1 68.4304 139.286 68.1754 138.56 67.7495C138.418 67.6686 138.369 67.4882 138.45 67.3466C138.531 67.205 138.711 67.1558 138.853 67.2367C139.367 67.5297 140.853 68.1957 141.52 67.7628C141.954 67.4831 141.48 64.7462 140.48 61.7694C140.429 61.615 140.512 61.448 140.667 61.3965C140.821 61.345 140.989 61.4285 141.04 61.583C141.64 63.361 142.914 67.5764 141.834 68.2423C141.566 68.4095 141.256 68.4972 140.94 68.4953Z" fill="#231F20"/>
<path d="M139.72 72.1047C139.028 72.1154 138.343 71.9649 137.72 71.6652C136.053 70.8394 135.053 68.9016 134.706 65.9049C134.691 65.7438 134.806 65.5994 134.966 65.5786C135.044 65.5692 135.123 65.5914 135.184 65.6402C135.245 65.689 135.285 65.7604 135.293 65.8383C135.606 68.6219 136.506 70.4066 137.96 71.1657C140.18 72.2645 143.014 70.5997 143.04 70.5864C143.107 70.545 143.188 70.5323 143.265 70.551C143.341 70.5698 143.407 70.6186 143.447 70.6863C143.53 70.8263 143.485 71.0065 143.347 71.0925C142.236 71.7133 140.992 72.0603 139.72 72.1047Z" fill="#231F20"/>
<path d="M140.033 58.8127C139.879 58.8131 139.751 58.6937 139.74 58.5397C139.693 57.8738 139.5 57.4675 139.153 57.2944C138.487 56.9481 137.24 57.5741 136.826 57.8471C136.69 57.9372 136.507 57.9 136.416 57.7639C136.326 57.6278 136.363 57.4444 136.5 57.3543C136.573 57.3077 138.28 56.2023 139.413 56.7683C140.015 57.1321 140.367 57.7982 140.327 58.4997C140.332 58.5775 140.306 58.6542 140.255 58.713C140.204 58.7717 140.131 58.8076 140.053 58.8127H140.033Z" fill="#231F20"/>
<path d="M147.427 62.1157C147.275 62.1164 147.148 62.0007 147.134 61.8494C147.134 61.8494 147.001 60.3843 146.167 59.8516C145.447 59.3788 144.607 60.4576 144.6 60.4709C144.553 60.533 144.483 60.5736 144.405 60.5836C144.327 60.5936 144.249 60.5722 144.187 60.5242C144.124 60.4777 144.082 60.4078 144.071 60.3303C144.059 60.2527 144.08 60.1738 144.127 60.1113C144.534 59.5785 145.547 58.7395 146.494 59.3588C147.567 60.0647 147.714 61.7428 147.721 61.8094C147.728 61.8872 147.704 61.9647 147.654 62.0247C147.604 62.0847 147.532 62.1223 147.454 62.129L147.427 62.1157Z" fill="#231F20"/>
<path d="M123.979 60.5042C123.874 61.5655 124.058 62.6354 124.512 63.6007C125.459 65.3521 127.792 66.0647 129.699 65.4986C134.679 64.0269 137.073 54.5641 133.306 50.8482C129.806 47.3987 125.832 52.846 125.012 56.0624C124.632 57.5741 124.032 58.9725 123.979 60.5042Z" fill="#231F20"/>
<path fill-rule="evenodd" clip-rule="evenodd" d="M124.252 63.7406C125.12 65.1721 126.69 66.0286 128.366 65.9848C128.838 65.9753 129.307 65.9014 129.759 65.765C132.159 65.0991 134.179 62.5353 135.04 59.1057C135.9 55.6762 135.306 52.4331 133.486 50.6418C132.607 49.6584 131.249 49.2518 129.972 49.5896C127.432 50.2888 125.279 53.7583 124.699 55.9958C124.592 56.4021 124.472 56.8083 124.352 57.2145C124.001 58.2764 123.777 59.3762 123.685 60.4909C123.57 61.6056 123.766 62.7304 124.252 63.7406ZM124.772 63.4676C124.339 62.5482 124.166 61.528 124.272 60.5175H124.279C124.376 59.4493 124.6 58.3964 124.945 57.381L124.945 57.381C125.065 56.9681 125.185 56.5552 125.292 56.1423C125.825 54.0979 127.859 50.8149 130.152 50.149C131.229 49.8693 132.37 50.2228 133.099 51.0613C134.766 52.7061 135.293 55.7628 134.493 58.9659C133.693 62.169 131.826 64.553 129.619 65.219C127.793 65.798 125.805 65.0797 124.772 63.4676Z" fill="#231F20"/>
<path d="M151.668 66.3577C151.543 66.3581 151.42 66.3235 151.314 66.2578C151.002 66.0657 150.904 65.6583 151.094 65.3455C151.168 65.2256 158.562 53.0791 159.828 45.5074C160.288 42.7638 159.068 39.9802 156.395 37.6561C152.741 34.4863 147.287 33.0679 143.427 34.2865C136.56 36.4575 132.906 52.2666 132.866 52.3998C132.783 52.7553 132.429 52.9781 132.073 52.8993C131.714 52.8197 131.487 52.4653 131.566 52.1068C131.719 51.4409 135.433 35.4119 143.027 33.0146C147.367 31.6494 153.221 33.1411 157.268 36.6506C160.308 39.3143 161.689 42.5108 161.149 45.7272C159.815 53.5585 152.541 65.532 152.234 66.0381C152.114 66.2357 151.899 66.3567 151.668 66.3577Z" fill="#231F20"/>
<path d="M187.818 160.673C185.428 160.666 183.054 160.281 180.784 159.535C178.078 158.576 175.575 157.122 173.403 155.246C169.703 152.256 166.442 148.687 163.289 145.257C161.289 143.066 159.222 140.802 157.062 138.711C150.294 132.158 143.574 128.669 137.06 128.349C128.299 127.91 120.532 132.911 113.451 138.378C112.784 138.911 112.064 139.463 111.357 140.023C105.63 144.558 99.1364 149.692 91.1356 148.487C85.6818 147.668 81.4481 143.912 78.8612 140.909C72.494 133.51 69.527 122.928 71.0005 112.666C72.5606 101.612 78.7279 93.8207 89.3355 89.5054C98.1163 85.936 106.404 80.9416 114.424 76.1136L114.491 76.0803C119.458 73.0836 124.732 69.2478 126.152 63.4942C126.181 63.3752 126.271 63.2806 126.388 63.2458C126.506 63.2111 126.633 63.2415 126.721 63.3257C126.81 63.4099 126.847 63.5351 126.819 63.654C125.339 69.6474 119.938 73.583 114.851 76.6463L114.791 76.6863C106.75 81.5276 98.4363 86.5354 89.6088 90.1247C79.2346 94.3401 73.2074 101.952 71.6806 112.766C70.2538 122.835 73.134 133.19 79.3613 140.442C81.8748 143.366 85.9752 147.015 91.229 147.801C98.943 148.966 105.044 144.138 110.937 139.477L113.038 137.825C120.225 132.278 128.112 127.204 137.086 127.657C143.754 127.99 150.621 131.539 157.508 138.205C159.682 140.316 161.755 142.587 163.762 144.784C166.896 148.22 170.136 151.77 173.803 154.727C175.91 156.55 178.338 157.965 180.964 158.902C189.971 161.805 198.965 158.949 207.759 150.405C220.807 137.699 228.161 118.44 227.928 97.5032C227.821 87.7274 225.994 80.0892 222.341 74.1424C220.867 71.7384 219.007 69.0614 215.98 67.7229C214.433 67.0569 210.806 66.8039 209.406 68.7684C208.873 69.5209 208.82 70.4066 208.74 71.532C208.74 72.0181 208.673 72.5642 208.6 73.1568C208.576 73.3407 208.407 73.4704 208.223 73.4465C208.039 73.4226 207.909 73.2542 207.933 73.0703C208.013 72.4976 208.039 71.9848 208.073 71.492C208.146 70.3067 208.213 69.2878 208.86 68.3821C210.486 66.098 214.473 66.3377 216.247 67.1169C219.474 68.5286 221.374 71.3056 222.914 73.7762C226.634 79.8295 228.488 87.5809 228.601 97.4833C228.835 118.58 221.414 138.038 208.233 150.864C201.552 157.397 194.705 160.667 187.818 160.673Z" fill="#231F20"/>
<path d="M123.365 13.9024C123.269 13.9016 123.177 13.8605 123.112 13.7892C122.984 13.6575 122.984 13.4481 123.112 13.3164C124.579 12.0445 126.032 11.4851 127.439 11.6449C128.633 11.8079 129.718 12.4259 130.466 13.3697C130.571 13.5194 130.539 13.7255 130.392 13.8358C130.321 13.8881 130.231 13.9098 130.144 13.896C130.056 13.8823 129.978 13.8342 129.926 13.7626C129.288 12.9678 128.374 12.4423 127.365 12.2909C126.152 12.151 124.872 12.6638 123.552 13.8092C123.501 13.8598 123.436 13.8926 123.365 13.9024Z" fill="#231F20"/>
<path d="M143.227 121.716C143.181 121.726 143.133 121.726 143.087 121.716C142.939 121.637 142.88 121.455 142.954 121.304L151.368 104.456C151.443 104.307 151.625 104.247 151.774 104.322C151.924 104.398 151.983 104.58 151.908 104.729L143.5 121.55C143.449 121.653 143.343 121.718 143.227 121.716Z" fill="#231F20"/>
<path d="M127.552 124.999C117.918 124.999 106.597 121.883 105.97 121.71C105.852 121.694 105.754 121.611 105.719 121.497C105.684 121.383 105.717 121.26 105.806 121.18C105.894 121.099 106.02 121.078 106.13 121.124C106.337 121.177 126.552 126.751 135.9 123.188C136.058 123.13 136.234 123.21 136.293 123.368C136.323 123.442 136.322 123.525 136.289 123.598C136.256 123.671 136.195 123.727 136.12 123.754C133.359 124.669 130.459 125.091 127.552 124.999Z" fill="#231F20"/>
<rect x="207.826" y="70.0669" width="1.45346" height="2.15761" fill="#231F20"/>
<path fill-rule="evenodd" clip-rule="evenodd" d="M207.826 72.5175H209.28C209.357 72.5175 209.432 72.4867 209.487 72.4317C209.542 72.3768 209.573 72.3022 209.573 72.2245V70.0669C209.573 69.9051 209.442 69.7739 209.28 69.7739H207.826C207.747 69.7721 207.671 69.8022 207.614 69.8573C207.558 69.9125 207.526 69.988 207.526 70.0669V72.2245C207.53 72.3874 207.663 72.5176 207.826 72.5175ZM208.986 71.9249H208.12V70.3599H208.986V71.9249Z" fill="#231F20"/>
<path d="M129.799 63.7806L129.319 63.3144C132.359 60.2928 133.055 55.6376 131.033 51.8604L131.606 51.5208C133.777 55.5581 133.043 60.5394 129.799 63.7806Z" fill="white"/>
<path d="M151.801 72.5176L151.181 72.2712C153.128 67.2567 152.634 63.5541 152.634 63.5208L153.301 63.4276C153.314 63.5675 153.814 67.3233 151.801 72.5176Z" fill="white"/>
<path d="M97.9779 44.9734L102.808 40.0417L103.285 40.5074L98.4545 45.4391L97.9779 44.9734Z" fill="white"/>
<path d="M185.302 109.734L185.596 109.136L190.727 111.646L190.434 112.244L185.302 109.734Z" fill="white"/>
<path d="M14.0921 63.3599C13.812 63.2933 13.512 63.2467 13.2387 63.1534C12.365 62.9372 11.6705 62.2764 11.4118 61.4154C11.2266 60.6701 11.3724 59.8812 11.8119 59.2511C12.547 58.1374 13.7098 57.376 15.0255 57.1467C15.8856 56.9536 16.2723 57.0002 17.639 57.3332V41.2976L33.4271 38.1411V38.5007C33.4271 44.9203 33.4271 51.3332 33.4271 57.7527C33.4674 58.7723 33.0374 59.754 32.2604 60.4165C30.9855 61.6516 29.1432 62.1046 27.4399 61.6018C26.5575 61.406 25.8551 60.7403 25.6131 59.8704C25.417 59.1285 25.5611 58.338 26.0065 57.7128C26.7412 56.5925 27.911 55.8297 29.2334 55.6085C30.0957 55.42 30.9941 55.4847 31.8203 55.7949V44.7671L30.7002 44.9869C26.9443 45.7416 23.1951 46.4897 19.4525 47.2311C19.2459 47.271 19.2125 47.3509 19.2125 47.5374C19.2125 51.4397 19.2125 55.3354 19.2125 59.2311C19.2522 60.4451 18.6722 61.5962 17.6724 62.2877C16.9364 62.8436 16.0675 63.1972 15.1522 63.3133C15.1045 63.3258 15.0578 63.3414 15.0121 63.3599H14.0921Z" fill="#CD7DF3"/>
<path d="M263.926 109.32C263.926 109.193 263.926 109.067 263.926 108.94C263.885 108.591 263.754 108.258 263.546 107.974C263.208 107.482 262.77 107.067 262.26 106.756C261.75 106.429 261.181 106.203 260.586 106.09C260.207 106.017 259.818 106.017 259.439 106.09H259.339C259.336 106.046 259.336 106.001 259.339 105.957C259.406 105.697 259.473 105.444 259.546 105.197L260.88 100.536C261.366 98.8445 261.86 97.1531 262.346 95.4616V95.3617L261.88 95.3217C260.602 95.2537 259.327 95.4817 258.153 95.9877C257.055 96.4408 256.138 97.2439 255.546 98.2718C255.379 98.5648 255.252 98.8778 255.112 99.1908C255.019 99.3906 254.946 99.6037 254.859 99.8101C254.855 99.8388 254.855 99.8679 254.859 99.8967L255.026 99.7968C255.555 99.4494 256.11 99.1422 256.686 98.8778C257.574 98.4788 258.548 98.305 259.519 98.3717C259.938 98.4126 260.35 98.5043 260.746 98.6447C260.743 98.678 260.743 98.7114 260.746 98.7446C259.937 101.55 259.135 104.354 258.339 107.155C258.329 107.206 258.329 107.258 258.339 107.308C258.396 107.804 258.606 108.269 258.939 108.64C259.361 109.155 259.895 109.567 260.499 109.846L261.02 110.072L261.5 110.212H261.633C262.029 110.292 262.437 110.292 262.833 110.212C263.167 110.165 263.472 109.999 263.693 109.746C263.765 109.645 263.832 109.54 263.893 109.433L263.926 109.32Z" fill="#CD7DF3"/>
<path d="M26.6919 115.871C26.6919 115.712 26.6919 115.545 26.7652 115.385C26.882 114.945 27.1118 114.544 27.432 114.22C27.97 113.659 28.6195 113.217 29.3388 112.921C30.0587 112.605 30.833 112.431 31.619 112.409C32.1204 112.393 32.6203 112.472 33.0925 112.642L33.2191 112.688C33.2224 112.631 33.2224 112.573 33.2191 112.515C33.2191 112.175 33.1525 111.849 33.1125 111.503C32.8591 109.403 32.6035 107.31 32.3457 105.223C32.0657 102.946 31.779 100.675 31.499 98.404V98.2708C31.7057 98.2708 31.9124 98.2708 32.1057 98.3174C33.7633 98.4823 35.3604 99.027 36.7728 99.909C38.0857 100.716 39.0956 101.933 39.6464 103.372C39.7918 103.787 39.9143 104.209 40.0131 104.637C40.0931 104.917 40.1464 105.203 40.2131 105.489C40.2233 105.527 40.2233 105.566 40.2131 105.603L40.0198 105.436C39.4095 104.882 38.7588 104.375 38.0729 103.918C37.0173 103.224 35.8049 102.806 34.5459 102.699C33.9997 102.664 33.4511 102.695 32.9125 102.792C32.9157 102.835 32.9157 102.877 32.9125 102.919C33.3569 106.684 33.8125 110.457 34.2792 114.24C34.2925 114.303 34.2925 114.369 34.2792 114.433C34.1089 115.069 33.7427 115.635 33.2325 116.051C32.5864 116.628 31.8149 117.048 30.9789 117.276C30.7456 117.35 30.5056 117.403 30.2722 117.463L29.6055 117.543H29.4988C28.9741 117.576 28.4481 117.504 27.952 117.33C27.536 117.205 27.1802 116.933 26.9519 116.564C26.8745 116.42 26.8077 116.271 26.7519 116.118L26.6919 115.871Z" fill="#CD7DF3"/>
<path d="M186.338 56.8083C186.424 56.6351 186.498 56.4553 186.598 56.2955C186.908 55.843 187.331 55.4783 187.824 55.2367C188.654 54.8154 189.562 54.5706 190.491 54.5175C191.427 54.4435 192.369 54.5498 193.265 54.8305C193.839 55.0074 194.374 55.2947 194.838 55.6762L194.965 55.7761C194.997 55.7142 195.024 55.6496 195.045 55.583C195.145 55.1901 195.238 54.7972 195.325 54.3976L196.925 47.0058C197.499 44.3421 198.07 41.665 198.639 38.9747L198.672 38.8148C198.905 38.9147 199.125 39.0013 199.339 39.1012C201.139 39.9384 202.722 41.1779 203.966 42.7239C205.137 44.1493 205.803 45.9219 205.859 47.7649C205.859 48.2876 205.833 48.8099 205.779 49.3299C205.779 49.6828 205.706 49.9958 205.666 50.3754C205.662 50.4178 205.648 50.4588 205.626 50.4953L205.466 50.2355C204.996 49.3726 204.461 48.5466 203.866 47.7649C202.947 46.5644 201.741 45.6141 200.359 45.0013C199.757 44.7465 199.125 44.5697 198.479 44.4753C198.479 44.4753 198.479 44.4753 198.432 44.4753C198.425 44.5271 198.414 44.5783 198.399 44.6284L195.518 57.9071C195.503 57.9849 195.473 58.0593 195.432 58.1268C194.99 58.7768 194.356 59.2728 193.618 59.5452C192.66 59.9392 191.625 60.11 190.591 60.0447C190.298 60.0447 190.011 60.0047 189.718 59.9781L188.951 59.8183L188.824 59.765C188.22 59.5974 187.655 59.3098 187.164 58.9193C186.747 58.6107 186.452 58.1651 186.331 57.6607C186.305 57.4685 186.29 57.2751 186.284 57.0813L186.338 56.8083Z" fill="#CD7DF3"/>
<path d="M2.68027 23.9147C-0.75337 23.9147 -0.760038 29.2421 2.68027 29.2421C6.12058 29.2421 6.12058 23.9147 2.68027 23.9147Z" fill="#698DFF"/>
<path d="M262.1 29.728C258.667 29.728 258.66 35.0555 262.1 35.0555C265.541 35.0555 265.541 29.728 262.1 29.728Z" fill="#698DFF"/>
<path d="M218.224 17.46C218.161 17.2399 218.044 17.0387 217.884 16.874L217.611 16.6676C217.409 16.5479 217.179 16.4835 216.944 16.4811H216.571C216.392 16.4731 216.214 16.5146 216.058 16.601C215.891 16.6511 215.741 16.7455 215.624 16.874C215.499 16.9914 215.405 17.1378 215.351 17.3002C215.267 17.4576 215.228 17.6349 215.238 17.813L215.284 18.1726C215.347 18.3932 215.464 18.5947 215.624 18.7586L215.898 18.965C216.1 19.0824 216.33 19.1444 216.564 19.1448H216.938C217.116 19.1552 217.294 19.116 217.451 19.0316C217.616 18.9771 217.764 18.8834 217.884 18.7586C218.12 18.498 218.257 18.1636 218.271 17.813C218.258 17.6998 218.238 17.5799 218.224 17.46Z" fill="#698DFF"/>
<path d="M58.9745 11.2333C56.8276 11.2333 56.8209 14.563 58.9745 14.563C61.128 14.563 61.1213 11.2333 58.9745 11.2333Z" fill="#698DFF"/>
<path d="M251.057 43.5634C248.91 43.5634 248.91 46.8931 251.057 46.8931C253.204 46.8931 253.204 43.5634 251.057 43.5634Z" fill="#698DFF"/>
</svg>
